<?xml version="1.0" standalone="no"?>
<!DOCTYPE svg PUBLIC "-//W3C//DTD SVG 20010904//EN"
 "http://www.w3.org/TR/2001/REC-SVG-20010904/DTD/svg10.dtd">
<svg version="1.0" xmlns="http://www.w3.org/2000/svg"
 width="1082.000000pt" height="1082.000000pt" viewBox="0 0 1082.000000 1082.000000"
 preserveAspectRatio="xMidYMid meet">
<metadata>
Created by potrace 1.14, written by Peter Selinger 2001-2017
</metadata>
<g transform="translate(0.000000,1082.000000) scale(0.100000,-0.100000)"
fill="#000000" stroke="none">
<path d="M2250 9240 l0 -80 -69 0 -69 0 -7 -145 -7 -144 -72 -3 -71 -3 -3 -71
-3 -72 -143 -7 -143 -7 -7 -106 c-3 -58 -6 -158 -6 -224 l0 -118 150 0 150 0
0 -75 0 -75 75 0 74 0 3 -147 3 -148 73 -3 72 -3 0 -149 0 -150 155 0 155 0 0
150 0 149 73 3 72 3 3 148 3 147 74 0 75 0 0 75 0 75 150 0 150 0 0 75 0 74
73 3 72 3 0 75 0 75 -72 3 -73 3 0 68 0 69 -150 7 -149 7 -3 72 -3 71 -71 3
-72 3 -7 149 -7 150 -69 0 -69 0 0 75 0 75 -155 0 -155 0 0 -80z"/>
<path d="M8567 8563 c-4 -3 -7 -36 -7 -73 l0 -67 -442 -6 c-244 -4 -649 -7
-900 -7 l-458 0 0 -70 0 -70 -337 0 c-186 0 -389 -3 -450 -7 l-113 -6 0 -69 0
-68 -148 0 c-82 0 -251 -3 -375 -7 l-227 -6 0 -69 0 -68 -150 0 -150 0 0 -75
0 -75 -227 -2 -228 -3 -3 -71 -3 -72 -149 -7 -150 -7 0 -68 0 -68 -145 -7
-145 -7 0 -69 0 -68 -77 -3 -78 -3 -3 -71 -3 -72 -144 -7 -144 -7 -3 -72 -3
-71 -71 -3 -72 -3 -7 -143 -7 -144 -143 -7 -143 -7 -7 -144 -7 -143 -72 -3
-71 -3 -3 -72 -3 -72 -72 -3 -72 -3 -3 -147 -3 -147 -72 -3 -72 -3 -3 -77 -3
-78 -74 0 -75 0 0 -150 0 -150 -75 0 -75 0 0 -225 0 -225 -75 0 -75 0 0 -300
0 -300 -75 0 -75 0 2 -602 3 -603 80 -3 c44 -2 144 0 223 3 l142 7 0 68 0 67
150 8 150 7 0 69 0 68 78 3 77 3 3 71 3 72 149 7 150 7 0 69 0 68 73 3 72 3 3
72 3 72 72 3 72 3 3 71 3 72 144 7 144 7 3 72 3 71 78 3 77 3 0 74 0 75 75 0
75 0 0 75 0 75 75 0 75 0 0 75 0 75 75 0 75 0 0 75 0 75 75 0 75 0 0 75 0 75
75 0 75 0 0 75 0 75 77 0 76 0 -6 -112 c-4 -62 -7 -130 -7 -150 l0 -38 -70 0
-70 0 0 -75 0 -75 -74 0 -74 0 -7 -150 -7 -150 -69 0 -69 0 0 -75 0 -75 -74 0
-74 0 -7 -150 -7 -150 -74 0 -74 0 0 -75 0 -75 -75 0 -75 0 0 -75 0 -75 -75 0
-75 0 0 -75 0 -75 -75 0 -75 0 0 -75 0 -75 -75 0 -75 0 0 -74 0 -74 -145 -7
-145 -7 0 -68 0 -67 -149 -8 -149 -7 -7 -144 -7 -143 -147 -3 -146 -3 -3 -77
-3 -78 -76 0 -76 0 6 -107 c4 -58 7 -123 7 -144 l0 -38 73 -3 72 -3 3 -71 3
-72 144 -7 145 -7 0 -74 0 -74 75 0 75 0 0 -75 0 -75 150 0 150 0 0 -75 0 -75
80 0 80 0 0 -68 0 -69 107 -6 c58 -4 159 -7 225 -7 l118 0 0 -68 0 -69 113 -6
c146 -9 721 -9 1010 0 l227 6 0 69 0 68 300 0 300 0 0 75 0 75 113 0 c61 0
163 3 225 7 l112 6 0 69 0 68 75 0 75 0 0 74 0 73 150 8 150 7 0 69 0 69 75 0
75 0 0 75 0 74 78 3 77 3 3 73 3 72 69 0 70 0 0 75 0 74 78 3 77 3 3 72 3 72
72 3 72 3 3 73 3 72 69 0 69 0 3 78 3 77 71 3 72 3 7 144 7 144 72 3 71 3 3
153 3 152 74 0 75 0 0 75 0 75 69 0 69 0 7 150 7 150 68 0 67 0 6 113 c4 61 7
163 7 225 l0 112 68 0 69 0 6 113 c4 61 7 163 7 225 l0 112 68 0 69 0 6 113
c4 61 7 196 7 300 l0 187 68 0 69 0 6 113 c4 61 7 196 7 300 l0 187 68 0 69 0
6 122 c4 66 7 372 7 680 l0 558 68 0 69 0 6 113 c4 61 7 264 7 450 l0 337
-223 0 c-123 0 -227 -3 -230 -7z m-3617 -3078 l0 -75 -70 0 -70 0 0 75 0 75
70 0 70 0 0 -75z m-150 -150 l0 -75 -70 0 -70 0 0 75 0 75 70 0 70 0 0 -75z"/>
</g>
</svg>
